<svg version="1" xmlns="http://www.w3.org/2000/svg" width="933.333" height="933.333" viewBox="0 0 700.000000 700.000000"><path d="M71.5 1.5C60.7 3.8 56.1 5.4 48.3 9.4 26.6 20.3 10.7 39.5 3.4 63.5.7 72.4.7 72.8.2 107.2 0 126.4 0 142 .2 142c.1 0 4.1-.7 8.8-1.5 13.7-2.4 16.8-2.1 23 2.2 5.7 4.1 4.6 2.4 38.5 59.8 6.5 11 17.4 29.4 24.2 40.8 6.7 11.5 12.3 21.1 12.3 21.3 0 .3.9 1.7 1.9 3.2 1.7 2.4 43.8 73.6 46.5 78.7 5.1 9.3 16.1 26.6 16.3 25.4.2-.7 2.3-12.2 4.8-25.4 2.4-13.2 4.7-25.8 5.1-28 .3-2.2.8-4.3 1-4.6.2-.4.6-2.4.9-4.5.3-2.2 1-5.9 1.5-8.4s2.3-11.9 4-21c3-16 3.5-18.8 4.5-24 .3-1.4.8-3.9 1-5.5.3-1.7.8-3.7 1-4.5.2-.8.7-3.1 1-5 .3-1.9 1.6-9.1 3-16 2.7-14.1 9.2-49 9.9-53.3.3-1.5.7-3.5 1-4.5.3-.9.7-3.3 1-5.2.3-1.9.8-4.5 1-5.6.2-1.2.7-3.7 1-5.5.3-1.9 1.4-7.7 2.5-12.9 1-5.2 2.2-11.3 2.5-13.4 1.8-11.6 5.9-18.6 12.9-22.2 2.7-1.4 18.3-4.8 27.2-6 2.2-.3 6-.9 8.5-1.4 2.5-.5 8.8-1.7 14-2.5 11.8-2 19.8-3.4 27.6-4.9 1.2-.2 3.9-.7 6-1 2.2-.4 6.5-1.1 9.7-1.7 7.4-1.5 12.9-.7 17.7 2.5 8 5.3 8.7 10 4.5 29.2-1.9 8.2-3.6 16-3.9 17.4-.3 1.4-2.5 11.7-5.1 23-2.5 11.2-4.7 21.4-4.9 22.5-.3 1.1-1.1 4.9-2 8.5-.8 3.6-1.7 7.6-2 9-.2 1.4-4.3 19.6-9 40.5-4.6 20.9-8.7 39.1-9 40.5-.2 1.4-1.2 5.6-2.1 9.5-.9 3.8-1.9 8.1-2.1 9.5-.3 1.4-.9 4.1-1.4 6-.5 1.9-1.1 4.6-1.4 6-.5 2.7-2.8 13.2-7.1 32.5-1.5 6.6-2.8 12.7-3 13.5-.2.8-3.5 15.8-7.4 33.2-3.9 17.5-7.3 32.8-7.5 34-.2 1.3-1.2 5.4-2.1 9.3-.9 3.8-1.9 8.1-2.2 9.5-.2 1.4-3.1 14.3-6.3 28.8-6.5 28.9-8.7 34.5-15.4 39.4-4.3 3.1-8.8 4.6-19.1 6.3-1.6.3-4.3.7-6 1-1.6.3-5.9 1-9.4 1.6-3.5.5-6.6 1.1-7 1.3-.3.2-2.8.7-5.6 1-2.7.4-8.1 1.3-12 2.1-3.8.8-8.6 1.6-10.5 1.9-1.9.3-8.9 1.5-15.5 2.7-6.6 1.3-15 2.3-18.6 2.3-7.4.1-11.2-1.8-18.2-9-3.1-3.2-20-28.7-37.8-57.2-3.8-6-49.8-78.1-55.3-86.7-4.6-7.1-28.3-44.1-33.4-52.2L0 317.5V404c.1 95.5 0 94 6.6 110.4 9 22.6 30.3 42.4 53.9 49.9 12.3 4 13.5 4 84.5 4.3 38.2.1 70.5.3 71.7.3l2.1.1v59.3c0 51.2.2 59.7 1.5 62.3 3.1 6 9.9 9.8 16.1 9 2.2-.3 4.4-.5 4.8-.5.5-.1 94.4-70.2 132.8-99.2 17.3-13.1 30.2-22.8 32.5-24.4 1.5-1.1 4.1-3.1 5.7-4.4l3-2.5 105.2-.1c104-.2 105.2-.2 112.9-2.3 26.7-7.3 47.5-24.7 58.9-49.2 2.4-5.1 4.7-12.1 6.4-19.5 1-4.4 1.7-69.5.7-69.5-.4 0-3.4 1.6-6.6 3.5-3.2 1.9-6 3.5-6.2 3.5-.1 0-4.1 1.8-8.7 3.9-19 9-49.4 18.7-70.8 22.6-1.4.3-4.7.9-7.5 1.5-2.7.5-6.3 1.2-8 1.4-1.6.2-6.1.9-10 1.5-12.7 1.9-13.9 2.1-23.5 2.8-22.6 1.7-45.6.7-63.6-2.8-6-1.1-11.9-2.3-13.1-2.5-1.2-.2-3.4-.9-4.8-1.4-1.4-.5-2.5-.7-2.5-.5 0 1.1-24.3-8.2-32.8-12.7-14.3-7.4-22.8-13.4-32.2-22.8-19-18.9-25.9-36-18.7-46.8 4-6.2 8.7-8.2 24.7-10.7 1.9-.3 5.8-1 8.5-1.5 2.8-.5 6.4-1.2 8-1.5 1.7-.3 15.9-2.7 31.6-5.5 15.7-2.7 29.4-5 30.5-5 2.3 0 17.8 6.7 31.9 13.7 5.5 2.7 14.1 6.3 19 7.9 8.1 2.6 10.3 2.9 22 2.8 10 0 14.9-.6 21.5-2.3 20.4-5.3 35.9-17.3 38.5-29.9 2-9.6-.8-20.7-7-28-5.7-6.6-20.2-12.5-35.9-14.6-2.7-.4-5.2-.9-5.5-1-1.5-.9-26.7-2.4-51.1-3.1-10.2-.2-19.6-.7-21-.9-1.4-.3-5.6-.8-9.5-1.1-11-.9-32-4.6-42.7-7.5-2.1-.5-5.3-1.4-7-1.9-12.4-3.3-28.8-10.7-39.3-17.7-7.8-5.1-19.9-16.7-25-23.9-8.2-11.4-14.9-26.8-18.1-41.5-.4-1.9-.8-3.7-.9-4-.8-3.2-1.8-14.9-1.7-19.9.5-50.5 39.9-99.7 98.7-123.3 5-2 10.4-4 12-4.4 1.7-.4 3.5-1 4-1.4 2.5-1.9 39.8-10.1 52.4-11.5 3-.4 6.3-.8 7.3-1 11.5-2.3 48-2.3 60.8-.1 1.4.3 4.1.7 6 1 29.1 4.4 54.8 14.4 76.5 29.7 7.8 5.6 9 6.5 16.9 13.8l3.8 3.6-.6-7.5c-.4-4.1-.8-8.2-1-9-.1-.8-.6-3.3-1.1-5.5-.4-2.2-1.2-4.6-1.8-5.3-.5-.6-.7-1.2-.3-1.2 1.1 0-6.4-15.3-10.9-22.1-5.9-8.8-18.3-20.3-28-25.8-6.7-3.9-18.5-8.6-27-10.8C627.9.9 503 .5 352 .4 129.7.2 76.4.4 71.5 1.5z"/><path d="M536 127.7c-20.6 3.1-33.7 10.1-40.3 21.4-7.8 13.5-3.6 31.8 9.6 40.6 4.2 2.8 12 5.7 18.6 7 1.4.2 2.7.6 3.1.8.3.2 3.3.6 6.5 1 3.3.3 7.1.8 8.5 1 1.4.2 6.8.7 12 1 5.2.3 12.2.8 15.5 1 3.3.3 17.5.7 31.5 1 29 .5 36.6 1.1 56.5 4.1 7 1.1 25.7 6.5 33.8 9.7l8.7 3.5v-83.5l-4.2.8c-2.4.5-5.2 1-6.3 1.2-1.1.3-4 .8-6.5 1.2-5.5.9-42.1 7.3-58.5 10.3-10.5 1.9-19.7-.6-38-10.4-15.3-8.1-26.9-11.7-38.5-11.9-5.2-.1-10.6 0-12 .2z"/></svg>