<svg xmlns="http://www.w3.org/2000/svg" width="189" height="189" viewBox="0 0 189 189">
  <style>
    path {
      fill: #00bd6a;
    }
    @media (prefers-color-scheme: dark) {
      path {
        fill: #02d9b3;
      }
    }
  </style>
  <path fill="#00BC6B" d="M165.372203,0 C178.402612,0 188.996741,10.5937167 188.996741,23.6236191 L188.996741,23.6236191 L188.997163,24.0318663 C188.671248,23.6593029 188.325651,23.2846561 187.960374,22.9079258 C185.32273,20.1875827 181.720778,17.7096692 177.154519,15.4741853 C172.58826,13.2387014 167.138166,11.7020326 160.804238,10.8641788 C154.47031,10.026325 147.32683,10.3085651 139.373798,11.7108992 C129.04881,13.5314732 120.689085,16.706828 114.294624,21.2369634 C107.900162,25.7670988 103.34716,30.9498835 100.635616,36.7853174 C97.9240722,42.6207513 97.0635192,48.3469941 98.053957,53.9640457 C99.1681995,60.2832288 101.580338,65.3962097 105.290372,69.3029885 C109.000406,73.2097673 113.817616,76.0525671 119.742002,77.831388 C125.666389,79.610209 132.404846,80.7025161 139.957375,81.1083092 C147.878962,81.1594428 153.882055,81.5488587 157.966654,82.2765569 C162.051252,83.0042551 164.851417,83.9946317 166.367149,85.2476866 C167.882881,86.5007415 168.838834,88.2506792 169.235009,90.4974999 C169.754989,93.446452 168.831849,95.9621016 166.465589,98.0444486 C164.09933,100.126796 160.962824,101.512402 157.056071,102.201268 C153.707426,102.791724 150.748082,102.734367 148.178037,102.029197 C145.607993,101.324027 143.286051,100.394119 141.212212,99.2394733 C139.138373,98.0848279 137.107865,97.1759284 135.120689,96.5127749 C134.627826,96.1653031 134.194605,95.952107 133.821027,95.8731866 C133.522164,95.8100503 133.208901,95.7957867 132.881237,95.830396 L132.632789,95.8655166 L108.773694,100.072519 C107.517952,100.29394 106.418637,100.994552 105.475748,102.174355 C104.53286,103.354158 104.267364,104.704102 104.679262,106.224189 C105.239725,108.586834 106.775205,111.175736 109.285702,113.990894 C111.7962,116.806053 115.299696,119.337525 119.796192,121.58531 C124.292687,123.833095 129.894688,125.415374 136.602195,126.332149 C143.309701,127.248923 151.198078,126.907733 160.267324,125.308581 C171.569001,123.31579 180.83791,120.19731 188.074052,115.953141 C188.385625,115.770395 188.693392,115.586107 188.997353,115.400275 L188.996741,129.929905 C188.996741,142.959807 178.402612,153.553524 165.372203,153.553524 L165.372203,153.553524 L112.216992,153.553524 L66.1122292,188.139979 C63.1960753,190.280869 59.0617812,188.176891 59.0617812,184.559524 L59.0617812,184.559524 L59.0617812,153.553524 L23.624974,153.553524 C10.5945648,153.553524 0.000435963364,142.959807 0.000435963364,129.929905 L0.000435963364,129.929905 L0,85.768 L33.9122681,138.938451 C34.8665294,140.205455 35.9318733,141.273464 37.1082998,142.142479 C38.2228092,142.965755 39.7636443,143.230798 41.7308052,142.937608 L42.0626128,142.883574 L64.6029702,138.909101 C66.8711822,138.509154 68.4448586,137.693448 69.3239992,136.461982 C70.123218,135.342467 70.6920513,134.115304 71.0304993,132.780493 L71.1251222,132.376821 L94.2320311,28.4079033 C94.4173796,27.8011148 94.4486926,27.1497236 94.3259701,26.4537296 C94.1050696,25.2009405 93.4186783,24.2096383 92.2667963,23.479823 C91.1917064,22.798662 90.0626132,22.5333632 88.8795166,22.6839265 L88.6251693,22.7225553 L64.5962978,26.9594937 C62.7533755,27.2844506 61.4216487,28.0216132 60.6011175,29.1709815 C59.8489638,30.2245692 59.3946114,31.2256464 59.2380603,32.1742132 L59.2027481,32.4316114 L46.2639749,100.807087 L10.9323602,40.9429831 C10.4770222,40.018585 9.66727605,39.1566785 8.50312176,38.3572638 C7.40744714,37.6048735 6.0111417,37.3504748 4.31420545,37.5940676 L3.99250688,37.6455771 L0,38.349 L0.000435963364,23.6236191 C0.000435963364,10.7240157 10.3837416,0.212117952 23.2348008,0.00316995747 L23.624974,0 Z M151.881666,34.9164756 C154.312184,35.6462483 156.488408,36.565652 158.41034,37.6746867 C160.332272,38.7837214 162.204682,39.6119035 164.02757,40.159233 C164.495673,40.3662785 165.027348,40.5259163 165.622597,40.6381463 C166.118638,40.7316713 166.601782,40.7520577 167.072031,40.6993053 L167.352632,40.6588773 L188.996,36.842 L188.997432,59.4016903 C188.030402,58.9502271 187.020772,58.5222935 185.968539,58.1178894 C179.641294,55.6861417 171.52781,54.5467044 161.628085,54.6995775 C153.54221,54.53262 147.539117,54.1432041 143.618807,53.5313298 C139.698496,52.9194555 137.009166,51.9457338 135.550817,50.6101646 C134.092469,49.2745954 133.202348,47.6940399 132.880456,45.8684981 C132.409998,43.2003986 133.072655,40.8392734 134.868427,38.7851227 C136.664198,36.7309719 139.445697,35.3717648 143.212922,34.7075013 C146.561567,34.1170448 149.451149,34.1867029 151.881666,34.9164756 Z"/>
</svg>
